# xmcd CD database file
#
# Track frame offsets:
#	150
#	14922
#	32425
#	51272
#	65430
#	79005
#	97207
#	116685
#	130015
#	143600
#	158477
#	171790
#	184875
#	195272
#	205430
#	219135
#	232067
#	243390
#	260290
#	279340
#	307832
#	320692
#
# Disc length: 4451 seconds
#
# Revision: 2
# Processed by: cddbd v1.5PL3 Copyright (c) Steve Scherf et al.
# Submitted via: CDex 1.51
#
DISCID=32116116
DTITLE=Marvin Gaye - The Very Best of Marvin Gaye
DYEAR=1900
DGENRE=Soul
TTITLE0=I Heard It Through The Grapevine
TTITLE1=What's Going on
TTITLE2=Sexual Healing
TTITLE3=You Are Everything (with Diana Ross)
TTITLE4=It Takes Two (with Kim Weston)
TTITLE5=Let's Get It On
TTITLE6=Abraham, Martin and John
TTITLE7=Too Busy Thinking About My Baby
TTITLE8=How Sweet It Is (To Be Loved By You)
TTITLE9=Mercy Mercy Me (The Ecology)
TTITLE10=Stop, Look, Listen (To Your Heart) (with Diana Ross)
TTITLE11=You're All I need To Get By (with Tammi Terrell)
TTITLE12=Ain't Nothing Like The Real Thing (with Tammi Terrell)
TTITLE13=Wherever I Lay My Hat (That's My Home)
TTITLE14=The Onion Song (with Tammi Terrell)
TTITLE15=You Ain't Livin' Till You're Lovin' (with Tammi Terrell)
TTITLE16=Good Lovin' Ain't Easy To Come By (with Tammi Terrell)
TTITLE17=That's The Way Love Is
TTITLE18=Got To Give It Up
TTITLE19=When Did You Stop Loving Me, When Did I Stop Loving You
TTITLE20=Can I Get A Witness
TTITLE21=Lucky Lucky Me
EXTD=
EXTT0=
EXTT1=
EXTT2=
EXTT3=
EXTT4=
EXTT5=
EXTT6=
EXTT7=
EXTT8=
EXTT9=
EXTT10=
EXTT11=
EXTT12=
EXTT13=
EXTT14=
EXTT15=
EXTT16=
EXTT17=
EXTT18=
EXTT19=
EXTT20=
EXTT21=
PLAYORDER=
